<svg width="46" height="46" viewBox="0 0 46 46" fill="none" xmlns="http://www.w3.org/2000/svg">
<g clip-path="url(#clip0)">
<path d="M41.2624 31.4142H25.7853V30.5377C25.9437 30.4719 26.095 30.3832 26.2324 30.2681L27.1858 29.4702C27.4571 29.2432 27.6127 28.91 27.6127 28.5563V26.1274C27.6127 25.4702 27.078 24.9355 26.4208 24.9355H23.8318C23.1745 24.9355 22.6399 25.4702 22.6399 26.1274V28.5563C22.6399 28.91 22.7955 29.2432 23.0668 29.4702L24.0202 30.2682C24.1576 30.3832 24.3087 30.4719 24.4669 30.5375V31.4142H17.334C16.6141 31.4142 16.0283 31.9999 16.0283 32.7198V34.5696C16.0283 35.2895 16.6141 35.8752 17.334 35.8752H24.4669V37.6732H17.334C16.6141 37.6732 16.0283 38.2589 16.0283 38.9788V40.8285C16.0283 41.5484 16.6141 42.1341 17.334 42.1341H24.4669V44.4773C24.4669 44.8414 24.7619 45.1365 25.1261 45.1365C25.4902 45.1365 25.7852 44.8414 25.7852 44.4773V42.1343H41.2624C41.9823 42.1343 42.5681 41.5486 42.5681 40.8287V38.9789C42.5681 38.259 41.9823 37.6733 41.2624 37.6733H25.7853V35.8753H41.2625C41.9824 35.8753 42.5682 35.2896 42.5682 34.5697V32.7199C42.5682 31.9999 41.9824 31.4142 41.2624 31.4142ZM23.9583 28.4971V26.254H26.2942V28.4971L25.3862 29.2571C25.3116 29.3195 25.2203 29.3509 25.1289 29.3515C25.1279 29.3515 25.127 29.3514 25.1261 29.3514C25.1252 29.3514 25.1244 29.3515 25.1235 29.3515C25.0321 29.3509 24.9409 29.3196 24.8663 29.2572L23.9583 28.4971ZM17.3467 40.816V38.9916H24.467V40.816H17.3467ZM41.2499 40.816H32.5669V38.9916H41.2499V40.816ZM31.2485 38.9916V40.816H25.7853V38.9916H31.2485ZM17.3467 34.5569V32.7326H24.467V34.5569H17.3467ZM25.7853 32.7326H35.223V34.5569H25.7853V32.7326ZM41.2499 34.5569H36.5414V32.7326H41.2499V34.5569Z" fill="#083844"/>
<path d="M12.1959 31.4143H5.65192C4.94933 31.4143 4.37769 31.9859 4.37769 32.6885V34.6012C4.37769 35.3038 4.94933 35.8754 5.65192 35.8754H12.1959C12.8985 35.8754 13.4701 35.3038 13.4701 34.6012V32.6885C13.4701 31.9859 12.8986 31.4143 12.1959 31.4143ZM12.1517 34.557H5.69605V32.7327H12.1517V34.557Z" fill="#083844"/>
<path d="M12.1959 37.6736H5.65192C4.94933 37.6736 4.37769 38.2451 4.37769 38.9477V40.8605C4.37769 41.5631 4.94933 42.1346 5.65192 42.1346H12.1959C12.8985 42.1346 13.4701 41.5631 13.4701 40.8605V38.9477C13.4701 38.2451 12.8986 37.6736 12.1959 37.6736ZM12.1517 40.8163H5.69605V38.9919H12.1517V40.8163Z" fill="#083844"/>
<path d="M39.4321 0.136719H7.51389C5.78455 0.136719 4.37769 1.54358 4.37769 3.27283V19.9754C4.37769 21.7046 5.78455 23.1115 7.51389 23.1115H11.9726C12.3367 23.1115 12.6318 22.8165 12.6318 22.4523C12.6318 22.0882 12.3367 21.7931 11.9726 21.7931H7.51389C6.51158 21.7931 5.69604 20.9778 5.69604 19.9754V3.27283C5.69604 2.27044 6.51158 1.45508 7.51389 1.45508H39.4321C40.4344 1.45508 41.2499 2.27044 41.2499 3.27283V19.9754C41.2499 20.9777 40.4345 21.7931 39.4321 21.7931H14.6093C14.2452 21.7931 13.9501 22.0882 13.9501 22.4523C13.9501 22.8165 14.2452 23.1115 14.6093 23.1115H39.4321C41.1614 23.1115 42.5683 21.7046 42.5683 19.9754V3.27283C42.5683 1.54358 41.1614 0.136719 39.4321 0.136719V0.136719Z" fill="#05AAD1"/>
<path d="M37.0439 10.927C37.0439 8.88311 35.381 7.22021 33.3371 7.22021C31.2932 7.22021 29.6304 8.88311 29.6304 10.927C29.6304 12.9709 31.2932 14.6338 33.3371 14.6338C35.381 14.6338 37.0439 12.9708 37.0439 10.927ZM30.9488 10.927C30.9488 9.61005 32.0202 8.53857 33.3372 8.53857C34.6541 8.53857 35.7256 9.60996 35.7256 10.927C35.7256 12.244 34.6542 13.3154 33.3372 13.3154C32.0202 13.3153 30.9488 12.244 30.9488 10.927Z" fill="#05AAD1"/>
<path d="M27.4846 9.5659C25.0068 9.5659 22.6289 10.6143 20.9444 12.4107C19.9796 10.7538 18.636 9.3438 17.0121 8.29799C15.0531 7.03614 12.7805 6.36914 10.4399 6.36914C10.0758 6.36914 9.78076 6.66419 9.78076 7.02832C9.78076 7.39245 10.0758 7.6875 10.4399 7.6875C12.5267 7.6875 14.5525 8.2819 16.2983 9.40638C18.0194 10.515 19.3755 12.0883 20.2278 13.8702C20.443 14.3167 21.0568 14.3711 21.3504 13.977C22.7891 12.0405 25.0823 10.8843 27.4847 10.8843C27.8489 10.8843 28.1439 10.5892 28.1439 10.2251C28.1439 9.86095 27.8487 9.5659 27.4846 9.5659Z" fill="#05AAD1"/>
<path d="M27.4845 12.3132C26.2416 12.3132 25.041 12.6799 24.012 13.3741C22.7776 14.2088 21.8831 15.4557 21.4936 16.8848C21.3979 17.236 21.605 17.5984 21.9562 17.6942C22.0142 17.71 22.0726 17.7175 22.1301 17.7175C22.42 17.7175 22.6856 17.5248 22.7656 17.2316C23.0723 16.1064 23.7772 15.1243 24.7499 14.4666C25.5597 13.9203 26.5053 13.6316 27.4845 13.6316C27.8487 13.6316 28.1437 13.3365 28.1437 12.9724C28.1437 12.6083 27.8486 12.3132 27.4845 12.3132Z" fill="#05AAD1"/>
<path d="M10.4399 10.4347C12.3592 10.4347 14.2213 11.122 15.6833 12.3702C17.1295 13.6048 18.0992 15.3087 18.4139 17.1681C18.4683 17.4898 18.7473 17.7173 19.0631 17.7173C19.0995 17.7173 19.1366 17.7144 19.1739 17.708C19.5328 17.6473 19.7745 17.307 19.7138 16.9481C19.3477 14.7845 18.2203 12.8026 16.5394 11.3676C14.839 9.91591 12.6728 9.11646 10.4399 9.11646C10.0758 9.11646 9.78076 9.4115 9.78076 9.77563C9.78076 10.1398 10.0757 10.4347 10.4399 10.4347Z" fill="#05AAD1"/>
</g>
<defs>
<clipPath id="clip0">
<rect width="45" height="45" fill="white" transform="translate(0.9729 0.136719)"/>
</clipPath>
</defs>
</svg>
