<svg width="25" height="16" viewBox="0 0 25 16" fill="none" xmlns="http://www.w3.org/2000/svg">
<path d="M13.0182 0.897206C12.7062 1.06552 12.5117 1.38558 12.5117 1.73369V7.15429H1.80865C1.26821 7.15429 0.82959 7.58274 0.82959 8.11064C0.82959 8.63855 1.26821 9.06699 1.80865 9.06699H12.5117V14.4876C12.5117 14.837 12.7062 15.157 13.0182 15.3241C13.3302 15.4937 13.7114 15.4822 14.0129 15.2973L24.3727 8.92035C24.6573 8.74439 24.8296 8.43963 24.8296 8.11064C24.8296 7.78166 24.6573 7.4769 24.3727 7.30093L14.0129 0.923984C13.8537 0.827074 13.6722 0.777344 13.4908 0.777344C13.3289 0.777344 13.1657 0.818148 13.0182 0.897206Z" fill="white"/>
</svg>
