<svg width="52" height="52" viewBox="0 0 52 52" fill="none" xmlns="http://www.w3.org/2000/svg">
<path d="M21.4393 19.2904C21.2621 19.6526 21.294 20.0775 21.5244 20.3996L25.1127 25.415L15.2098 32.5002C14.7097 32.8579 14.5875 33.5447 14.937 34.0331C15.2864 34.5216 15.9759 34.6276 16.4759 34.2699L26.3789 27.1847L29.9672 32.2001C30.1985 32.5234 30.5903 32.6907 30.9896 32.6388C31.3905 32.5891 31.7356 32.3262 31.8922 31.9555L37.2561 19.1974C37.4029 18.8462 37.3606 18.4501 37.1428 18.1457C36.9251 17.8413 36.5639 17.6734 36.1841 17.699L22.3774 18.6567C22.1659 18.6724 21.9651 18.7465 21.7972 18.8666C21.6474 18.9738 21.5235 19.1196 21.4393 19.2904Z" fill="white"/>
</svg>
