<svg width="46" height="46" viewBox="0 0 46 46" fill="none" xmlns="http://www.w3.org/2000/svg">
<g clip-path="url(#clip0)">
<path d="M41.1389 9.11646H32.3333L31.477 6.54741C30.9377 4.92978 29.4298 3.84302 27.7248 3.84302H19.221C17.516 3.84302 16.0081 4.92978 15.4689 6.54741L14.6125 9.11646H12.4866V6.91919C12.4866 5.22299 11.1066 3.84302 9.4104 3.84302H7.65259C5.95639 3.84302 4.57642 5.22299 4.57642 6.91919V9.27571C2.50501 9.82134 0.9729 11.7101 0.9729 13.9504V36.802C0.9729 39.4675 3.14143 41.636 5.80688 41.636H41.1389C43.8044 41.636 45.9729 39.4675 45.9729 36.802V13.9504C45.9729 11.285 43.8044 9.11646 41.1389 9.11646ZM7.21313 6.91919C7.21313 6.67688 7.41027 6.47974 7.65259 6.47974H9.4104C9.65271 6.47974 9.84985 6.67688 9.84985 6.91919V9.11646H7.21313V6.91919ZM43.3362 36.802C43.3362 38.0136 42.3505 38.9993 41.1389 38.9993H5.80688C4.59531 38.9993 3.60962 38.0136 3.60962 36.802V13.9504C3.60962 12.7389 4.59531 11.7532 5.80688 11.7532H15.5627C16.1302 11.7532 16.634 11.3901 16.8134 10.8517L17.9702 7.38123C18.1501 6.84202 18.6526 6.47974 19.221 6.47974H27.7248C28.2932 6.47974 28.7958 6.84202 28.9755 7.38114L30.1323 10.8517C30.3118 11.3901 30.8156 11.7532 31.3831 11.7532H41.1389C42.3505 11.7532 43.3362 12.7389 43.3362 13.9504V36.802Z" fill="#083844"/>
<path d="M39.2932 17.0266C40.0213 17.0266 40.6116 16.4364 40.6116 15.7083C40.6116 14.9801 40.0213 14.3899 39.2932 14.3899C38.5651 14.3899 37.9749 14.9801 37.9749 15.7083C37.9749 16.4364 38.5651 17.0266 39.2932 17.0266Z" fill="#083844"/>
<path d="M10.2893 14.3899H7.65259C6.9245 14.3899 6.33423 14.9802 6.33423 15.7083C6.33423 16.4363 6.9245 17.0266 7.65259 17.0266H10.2893C11.0174 17.0266 11.6077 16.4363 11.6077 15.7083C11.6077 14.9802 11.0174 14.3899 10.2893 14.3899Z" fill="#083844"/>
<path d="M23.4729 36.3625C16.9304 36.3625 11.6077 31.0398 11.6077 24.4973C11.6077 17.9548 16.9304 12.6321 23.4729 12.6321C30.0154 12.6321 35.3381 17.9548 35.3381 24.4973C35.3381 31.0398 30.0154 36.3625 23.4729 36.3625ZM23.4729 15.2688C18.3843 15.2688 14.2444 19.4087 14.2444 24.4973C14.2444 29.5859 18.3843 33.7258 23.4729 33.7258C28.5615 33.7258 32.7014 29.5859 32.7014 24.4973C32.7014 19.4087 28.5615 15.2688 23.4729 15.2688Z" fill="#05AAD1"/>
<path d="M23.4729 31.0891C19.8382 31.0891 16.8811 28.132 16.8811 24.4973C16.8811 20.8626 19.8382 17.9055 23.4729 17.9055C27.1076 17.9055 30.0647 20.8626 30.0647 24.4973C30.0647 28.132 27.1076 31.0891 23.4729 31.0891ZM23.4729 20.5422C21.2921 20.5422 19.5178 22.3165 19.5178 24.4973C19.5178 26.6781 21.2921 28.4524 23.4729 28.4524C25.6537 28.4524 27.428 26.6781 27.428 24.4973C27.428 22.3165 25.6537 20.5422 23.4729 20.5422Z" fill="#05AAD1"/>
</g>
<defs>
<clipPath id="clip0">
<rect width="45" height="45" fill="white" transform="translate(0.9729 0.239502)"/>
</clipPath>
</defs>
</svg>
