<svg width="46" height="46" viewBox="0 0 46 46" fill="none" xmlns="http://www.w3.org/2000/svg">
<g clip-path="url(#clip0)">
<path d="M42.0806 2.18384H2.97405C1.34922 2.18384 0.0273438 3.50571 0.0273438 5.13046V40.2588C0.0273438 41.8835 1.34922 43.2054 2.97405 43.2054H42.0806C43.7055 43.2054 45.0273 41.8835 45.0273 40.2588V5.13046C45.0273 3.50571 43.7055 2.18384 42.0806 2.18384ZM1.78516 5.13046C1.78516 4.47497 2.31848 3.94165 2.97405 3.94165H42.0806C42.7362 3.94165 43.2695 4.47497 43.2695 5.13046V9.56938H1.78516V5.13046ZM43.2695 40.2588C43.2695 40.9142 42.7362 41.4476 42.0806 41.4476H2.97405C2.31848 41.4476 1.78516 40.9142 1.78516 40.2588V11.3272H43.2695V40.2588Z" fill="#083844"/>
<path d="M39.125 5.87671H38.8003C38.3149 5.87671 37.9214 6.27028 37.9214 6.75562C37.9214 7.24095 38.3149 7.63452 38.8003 7.63452H39.125C39.6104 7.63452 40.0039 7.24095 40.0039 6.75562C40.0039 6.27028 39.6104 5.87671 39.125 5.87671Z" fill="#083844"/>
<path d="M33.6713 5.87671H33.3467C32.8613 5.87671 32.4678 6.27028 32.4678 6.75562C32.4678 7.24095 32.8613 7.63452 33.3467 7.63452H33.6713C34.1568 7.63452 34.5503 7.24095 34.5503 6.75562C34.5503 6.27028 34.1568 5.87671 33.6713 5.87671Z" fill="#083844"/>
<path d="M28.2177 5.87671H27.8931C27.4076 5.87671 27.0142 6.27028 27.0142 6.75562C27.0142 7.24095 27.4076 7.63452 27.8931 7.63452H28.2177C28.7032 7.63452 29.0966 7.24095 29.0966 6.75562C29.0966 6.27028 28.7032 5.87671 28.2177 5.87671Z" fill="#083844"/>
<path d="M12.1094 5.87671H5.92969C5.44427 5.87671 5.05078 6.27028 5.05078 6.75562C5.05078 7.24095 5.44427 7.63452 5.92969 7.63452H12.1094C12.5948 7.63452 12.9883 7.24095 12.9883 6.75562C12.9883 6.27028 12.5948 5.87671 12.1094 5.87671Z" fill="#083844"/>
<path d="M4.80103 21.583V31.2588C4.80103 31.5816 4.97795 31.8784 5.26192 32.032L13.3137 36.3857C13.316 36.3871 13.3194 36.3888 13.3236 36.3909C13.5763 36.5192 13.8751 36.5208 14.1318 36.401C14.1469 36.394 14.1579 36.3887 14.1632 36.3857L22.215 32.032C22.4989 31.8785 22.6759 31.5817 22.6759 31.2589V21.5835C22.6759 21.583 22.6759 21.5825 22.6759 21.582C22.6799 21.2666 22.5138 20.9728 22.2426 20.812C22.2282 20.8035 22.2197 20.7984 22.2189 20.798L14.1604 16.3874C13.8974 16.2436 13.5795 16.2436 13.3164 16.3874L5.25788 20.798L5.25753 20.7982C4.97241 20.9549 4.79681 21.256 4.80085 21.5813L4.80103 21.583ZM6.55884 23.0519L12.8595 26.5003V34.1418L6.55884 30.7348V23.0519ZM14.6174 34.1418V26.5003L20.9181 23.0519V30.7348L14.6174 34.1418ZM19.9664 21.569L13.7385 24.9774L7.51069 21.569L13.7385 18.1604L19.9664 21.569Z" fill="#05AAD1"/>
<path d="M26.6289 26.3729H39.3749C39.8603 26.3729 40.2538 25.9794 40.2538 25.494V21.5691C40.2538 21.0838 39.8603 20.6902 39.3749 20.6902H26.6289C26.1435 20.6902 25.75 21.0838 25.75 21.5691V25.494C25.75 25.9794 26.1435 26.3729 26.6289 26.3729ZM27.5078 22.4479H38.496V24.615H27.5078V22.4479Z" fill="#083844"/>
<path d="M26.6289 31.0405H39.3749C39.8603 31.0405 40.2538 30.647 40.2538 30.1616C40.2538 29.6763 39.8603 29.2827 39.3749 29.2827H26.6289C26.1435 29.2827 25.75 29.6763 25.75 30.1616C25.75 30.647 26.1435 31.0405 26.6289 31.0405Z" fill="#083844"/>
</g>
<defs>
<clipPath id="clip0">
<rect width="45" height="45" fill="white" transform="translate(0.0273438 0.19458)"/>
</clipPath>
</defs>
</svg>
