<svg width="46" height="46" viewBox="0 0 46 46" fill="none" xmlns="http://www.w3.org/2000/svg">
<g clip-path="url(#clip0)">
<path d="M27.4609 35.5987C27.5396 38.3416 27.9767 40.9109 28.7657 43.4241C28.8219 43.6024 28.8846 43.7792 28.936 43.9592C29.1786 44.8172 28.8798 45.2302 27.9671 45.235C26.1465 45.2462 24.3243 45.235 22.5038 45.235C21.2986 45.235 20.0935 45.2479 18.8883 45.2366C17.9451 45.227 17.7201 44.8285 17.9194 43.8917C18.4175 41.5424 18.8642 39.1804 19.3141 36.8215C19.3832 36.4616 19.3575 36.084 19.3832 35.5939C18.988 35.5939 18.6505 35.5939 18.3131 35.5939C14.2429 35.5939 10.1727 35.5971 6.10097 35.5923C2.93546 35.589 0.923679 33.5837 0.922072 30.4278C0.917252 22.0722 0.917252 13.7165 0.922072 5.36247C0.923679 2.26446 2.95314 0.243031 6.06401 0.241424C17.6334 0.23821 29.2011 0.23821 40.7705 0.241424C43.8798 0.243031 45.9108 2.26124 45.914 5.35765C45.9205 13.739 45.9205 22.122 45.914 30.5033C45.9108 33.5532 43.8717 35.5858 40.8203 35.5923C36.6955 35.6003 32.5723 35.5971 28.4475 35.5987C28.1567 35.5987 27.8658 35.5987 27.4609 35.5987ZM2.53214 29.0989C16.5054 29.0989 30.379 29.0989 44.3056 29.0989C44.3056 28.6378 44.3056 28.2393 44.3056 27.8408C44.3056 20.3721 44.3072 12.9051 44.304 5.43639C44.3024 3.14341 43.0121 1.85149 40.7223 1.85149C29.1851 1.84989 17.6494 1.84989 6.11222 1.85149C3.81923 1.85149 2.53214 3.14019 2.53214 5.43318C2.52893 11.6967 2.53054 17.9602 2.53054 24.2237C2.53214 25.8274 2.53214 27.431 2.53214 29.0989ZM44.2638 30.8263C30.3324 30.8263 16.4556 30.8263 2.57553 30.8263C2.63177 32.7128 3.99117 33.979 5.94993 33.9806C11.4373 33.9886 16.9248 33.9822 22.4122 33.9822C28.568 33.9822 34.7255 33.987 40.8814 33.9806C42.8466 33.979 44.1899 32.7369 44.2638 30.8263ZM26.9371 43.588C26.508 40.927 26.0822 38.2853 25.6564 35.6372C24.1604 35.6372 22.6211 35.6372 21.1797 35.6372C20.7475 38.3191 20.3249 40.9415 19.899 43.588C22.2193 43.588 24.6168 43.588 26.9371 43.588Z" fill="#083844"/>
<path d="M23.4166 3.45338C28.9056 3.45338 34.3931 3.45177 39.8821 3.45338C41.7814 3.45338 42.7005 4.36447 42.7021 6.2461C42.7053 12.4309 42.7053 18.6141 42.7021 24.7989C42.7005 26.6226 41.7589 27.5578 39.9239 27.5578C28.9201 27.5594 17.918 27.5594 6.91422 27.5578C5.0808 27.5578 4.13436 26.6258 4.13275 24.8005C4.12632 18.5626 4.12632 12.3248 4.13275 6.08702C4.13436 4.43196 5.12418 3.45177 6.7921 3.45017C12.3341 3.44535 17.8762 3.44856 23.4182 3.44856C23.4166 3.45017 23.4166 3.45177 23.4166 3.45338ZM23.3973 25.9494C28.8848 25.9494 34.3722 25.951 39.8596 25.9478C40.8606 25.9478 41.0904 25.7212 41.0904 24.7249C41.092 18.6221 41.092 12.5177 41.0904 6.41481C41.0904 5.24824 40.904 5.06506 39.7359 5.06506C28.8414 5.06345 17.9453 5.06345 7.0508 5.06506C5.94368 5.06506 5.74603 5.26431 5.74603 6.37304C5.74443 12.4502 5.74443 18.5257 5.74603 24.6028C5.74603 25.7726 5.92279 25.9478 7.09579 25.9494C12.5302 25.9494 17.963 25.9494 23.3973 25.9494Z" fill="#083844"/>
<path d="M26.6334 11.417C29.259 11.9103 30.665 13.379 30.6522 15.5386C30.6393 17.6677 29.1851 19.1653 26.6334 19.5895C26.6334 20.5263 26.6431 21.4839 26.6302 22.44C26.6174 23.4282 26.1289 23.7528 25.2306 23.3511C22.6195 22.1781 20.018 20.9842 17.4069 19.8128C17.0582 19.657 16.6709 19.583 16.1921 19.4384C16.1921 20.2981 16.2001 21.0163 16.1905 21.7346C16.168 23.282 15.1605 24.3522 13.7464 24.3474C12.3838 24.3409 11.3876 23.2579 11.3651 21.7587C11.3619 21.5707 11.349 21.3827 11.3667 21.1963C11.4727 20.0522 11.3297 19.1653 10.2226 18.3538C8.89212 17.3784 8.63181 15.778 9.18779 14.1969C9.7534 12.5868 10.9634 11.6998 12.6634 11.5054C12.8482 11.4845 13.041 11.47 13.2242 11.4957C15.7309 11.8396 17.9291 11.1004 20.0276 9.75229C21.5542 8.77051 23.2076 7.98797 24.8048 7.11544C26.206 6.34897 26.6318 6.59322 26.6334 8.16311C26.635 9.22685 26.6334 10.2954 26.6334 11.417ZM24.9639 21.4454C24.9639 17.1824 24.9639 13.0801 24.9639 8.87013C22.7625 10.0672 20.664 11.2386 18.5333 12.349C17.9452 12.6559 17.7314 13.0206 17.7845 13.6602C17.8359 14.2981 17.7893 14.944 17.7973 15.5868C17.807 16.4416 17.5354 17.4829 17.9275 18.0999C18.3179 18.7137 19.372 18.913 20.1482 19.2697C21.7229 19.9896 23.304 20.695 24.9639 21.4454ZM16.1423 13.1267C14.9307 13.1267 13.7545 13.0528 12.5927 13.1476C11.4647 13.2408 10.6163 14.2804 10.5713 15.4036C10.5247 16.5509 11.3297 17.7094 12.4786 17.8316C13.6822 17.9601 14.9114 17.8605 16.1423 17.8605C16.1423 16.2617 16.1423 14.7223 16.1423 13.1267ZM26.6913 13.1524C26.6913 14.7223 26.6913 16.297 26.6913 17.8749C28.0973 17.756 29.0325 16.771 29.0405 15.492C29.0469 14.1824 27.8161 13.0158 26.6913 13.1524ZM12.9832 19.5509C12.9832 20.4009 12.9141 21.1803 13.0185 21.9339C13.0587 22.2231 13.4636 22.6152 13.7561 22.6682C13.9778 22.7084 14.4856 22.3099 14.5145 22.0656C14.6109 21.2381 14.5515 20.3945 14.5515 19.5525C13.9907 19.5509 13.5424 19.5509 12.9832 19.5509Z" fill="#05AAD1"/>
<path d="M34.737 6.62061C34.925 6.76683 35.2351 6.89377 35.3363 7.11712C35.4359 7.33887 35.4376 7.76147 35.2913 7.91573C34.1939 9.07749 33.0707 10.2167 31.8977 11.2982C31.7257 11.4556 31.1537 11.3865 30.9287 11.2114C30.7488 11.07 30.6572 10.4674 30.7954 10.3196C31.9169 9.11123 33.1012 7.95912 34.2742 6.80057C34.3577 6.71541 34.5136 6.70256 34.737 6.62061Z" fill="#05AAD1"/>
<path d="M35.0759 16.3082C34.4332 16.3082 33.7905 16.3195 33.1493 16.305C32.6174 16.2937 32.1948 16.0013 32.3073 15.4823C32.3732 15.177 32.8312 14.7592 33.1349 14.7399C34.4139 14.6564 35.7026 14.6965 36.9865 14.7078C37.5184 14.7126 37.941 15.0099 37.8285 15.5305C37.7626 15.8358 37.3223 16.2134 36.9961 16.2745C36.3775 16.3918 35.7187 16.3082 35.0759 16.3082Z" fill="#05AAD1"/>
<path d="M35.4584 22.6248C35.4745 23.3222 34.7996 23.7641 34.2838 23.4074C33.1237 22.6071 31.9956 21.7571 30.911 20.8573C30.7294 20.7062 30.7037 20.1037 30.858 19.8932C31.0106 19.6827 31.602 19.5236 31.7916 19.6521C32.979 20.4572 34.1135 21.3425 35.2495 22.2199C35.3781 22.3179 35.415 22.5364 35.4584 22.6248Z" fill="#05AAD1"/>
</g>
<defs>
<clipPath id="clip0">
<rect width="45" height="45.0032" fill="white" transform="translate(0.918945 0.238037)"/>
</clipPath>
</defs>
</svg>
