<svg width="46" height="46" viewBox="0 0 46 46" fill="none" xmlns="http://www.w3.org/2000/svg">
<g clip-path="url(#clip0)">
<path d="M43.7632 0.239502H38.4897C37.7617 0.239502 37.1714 0.829775 37.1714 1.55786V2.87622H26.3099C25.7656 1.34183 24.3002 0.239502 22.5815 0.239502C20.8628 0.239502 19.3974 1.34183 18.8532 2.87622H7.9917V1.55786C7.9917 0.829775 7.40143 0.239502 6.67334 0.239502H1.3999C0.671816 0.239502 0.081543 0.829775 0.081543 1.55786V6.8313C0.081543 7.55938 0.671816 8.14966 1.3999 8.14966H6.67334C7.40143 8.14966 7.9917 7.55938 7.9917 6.8313V5.49536H13.4741C8.71776 8.50772 5.82651 13.5967 5.47873 18.9991C3.9257 19.5331 2.80615 21.0075 2.80615 22.7395C2.80615 24.9203 4.5804 26.6946 6.76123 26.6946C8.94206 26.6946 10.7163 24.9203 10.7163 22.7395C10.7163 21.0362 9.63394 19.5809 8.1209 19.0252C8.589 12.816 13.0602 7.46815 19.0392 5.95081C19.6873 7.25265 21.0312 8.14966 22.5815 8.14966C24.1318 8.14966 25.4758 7.25265 26.1239 5.9509C32.103 7.46824 36.5741 12.8161 37.0422 19.0253C35.5292 19.5809 34.4468 21.0362 34.4468 22.7395C34.4468 24.9203 36.221 26.6946 38.4019 26.6946C40.5827 26.6946 42.3569 24.9203 42.3569 22.7395C42.3569 21.0075 41.2374 19.5331 39.6844 18.9991C39.3359 13.5859 36.436 8.51941 31.689 5.51294H37.1714V6.8313C37.1714 7.55938 37.7617 8.14966 38.4897 8.14966H43.7632C44.4913 8.14966 45.0815 7.55938 45.0815 6.8313V1.55786C45.0815 0.829775 44.4913 0.239502 43.7632 0.239502ZM5.35498 5.51294H2.71826V2.87622H5.35498V5.51294ZM6.76123 24.0579C6.03429 24.0579 5.44287 23.4664 5.44287 22.7395C5.44287 22.0126 6.03429 21.4211 6.76123 21.4211C7.48817 21.4211 8.07959 22.0126 8.07959 22.7395C8.07959 23.4664 7.48817 24.0579 6.76123 24.0579ZM22.5815 5.51294C21.8546 5.51294 21.2632 4.92152 21.2632 4.19458C21.2632 3.46764 21.8546 2.87622 22.5815 2.87622C23.3085 2.87622 23.8999 3.46764 23.8999 4.19458C23.8999 4.92152 23.3085 5.51294 22.5815 5.51294ZM38.4019 21.4211C39.1288 21.4211 39.7202 22.0126 39.7202 22.7395C39.7202 23.4664 39.1288 24.0579 38.4019 24.0579C37.6749 24.0579 37.0835 23.4664 37.0835 22.7395C37.0835 22.0126 37.6749 21.4211 38.4019 21.4211ZM42.4448 5.51294H39.8081V2.87622H42.4448V5.51294Z" fill="#05AAD1"/>
<path d="M34.2253 27.2817L23.6784 11.4614C23.6781 11.4609 23.6776 11.4604 23.6773 11.4598C23.6735 11.4542 23.6694 11.4488 23.6655 11.4433C23.6474 11.417 23.6283 11.3917 23.6085 11.367C23.0529 10.6767 21.995 10.7233 21.4976 11.4433C21.4937 11.4488 21.4896 11.4542 21.4858 11.4598C21.4855 11.4604 21.485 11.4608 21.4847 11.4614L10.9378 27.2818C10.5891 27.8046 10.6581 28.5009 11.1025 28.9453C13.7328 31.5756 15.4069 35.0138 15.863 38.6924C15.6583 38.8579 15.4606 39.0351 15.2733 39.2269C14.035 40.4936 13.353 42.1608 13.353 43.9212C13.353 44.6493 13.9433 45.2396 14.6714 45.2396H30.4917C31.2198 45.2396 31.8101 44.6493 31.8101 43.9212C31.8101 42.1608 31.1281 40.4936 29.8899 39.2268C29.7024 39.035 29.5049 38.8578 29.3001 38.6923C29.7561 35.0136 31.4302 31.5753 34.0605 28.9453C34.505 28.5009 34.574 27.8045 34.2253 27.2817ZM22.5815 26.6946C23.3085 26.6946 23.8999 27.2861 23.8999 28.013C23.8999 28.7399 23.3085 29.3314 22.5815 29.3314C21.8546 29.3314 21.2632 28.7399 21.2632 28.013C21.2632 27.2861 21.8546 26.6946 22.5815 26.6946ZM16.2146 42.6028C16.7631 41.0355 18.25 39.8782 19.9448 39.8782H25.2183C26.9131 39.8782 28.4 41.0355 28.9485 42.6028H16.2146ZM26.8218 37.4422C26.3033 37.3098 25.7657 37.2415 25.2183 37.2415H19.9448C19.3973 37.2415 18.8598 37.3098 18.3413 37.4423C17.7243 33.8889 16.1219 30.5674 13.7138 27.8711L21.2632 16.547V24.2848C19.7287 24.829 18.6265 26.2944 18.6265 28.0131C18.6265 30.1939 20.4007 31.9682 22.5815 31.9682C24.7624 31.9682 26.5366 30.1939 26.5366 28.0131C26.5366 26.2944 25.4344 24.829 23.8999 24.2848V16.547L31.4494 27.8711C29.0411 30.5671 27.4387 33.8888 26.8218 37.4422Z" fill="#083844"/>
</g>
<defs>
<clipPath id="clip0">
<rect width="45" height="45" fill="white" transform="translate(0.081543 0.239502)"/>
</clipPath>
</defs>
</svg>
