<svg width="40" height="39" viewBox="0 0 40 39" fill="none" xmlns="http://www.w3.org/2000/svg">
<g clip-path="url(#clip0)">
<path d="M2.69069 2.65349C-0.374058 5.83686 0.253192 9.21849 0.253192 19.4917C0.253192 28.023 -1.23531 36.5754 6.55494 38.5887C8.98757 39.2144 30.5416 39.2144 32.9709 38.5855C36.2144 37.7486 38.8534 35.1177 39.2142 30.5304C39.2646 29.8901 39.2646 9.10474 39.2126 8.45149C38.8291 3.56511 35.8212 0.748987 31.8578 0.178612C30.9494 0.0469868 30.7674 0.00798676 26.1069 -0.000138234C9.57582 0.00798676 5.95207 -0.728138 2.69069 2.65349Z" fill="url(#paint0_linear)"/>
<path d="M19.7501 5.10081C13.8497 5.10081 8.24674 4.57594 6.10661 10.0684C5.22261 12.3369 5.35099 15.2831 5.35099 19.5016C5.35099 23.2033 5.23236 26.6824 6.10661 28.9331C8.24186 34.4288 13.8904 33.9023 19.7469 33.9023C25.397 33.9023 31.2226 34.4906 33.3887 28.9331C34.2744 26.6418 34.1444 23.7396 34.1444 19.5016C34.1444 13.8758 34.4547 10.2439 31.7264 7.51719C28.9639 4.75469 25.228 5.10081 19.7436 5.10081H19.7501ZM18.4599 7.69594C30.7676 7.67644 32.3341 6.30819 31.4696 25.3158C31.1625 32.0384 26.0437 31.3007 19.7517 31.3007C8.27923 31.3007 7.94936 30.9724 7.94936 19.4951C7.94936 7.88444 8.85936 7.70244 18.4599 7.69269V7.69594ZM27.4364 10.0863C26.4825 10.0863 25.709 10.8598 25.709 11.8137C25.709 12.7676 26.4825 13.5411 27.4364 13.5411C28.3902 13.5411 29.1637 12.7676 29.1637 11.8137C29.1637 10.8598 28.3902 10.0863 27.4364 10.0863ZM19.7501 12.1062C15.6665 12.1062 12.3564 15.4179 12.3564 19.5016C12.3564 23.5852 15.6665 26.8953 19.7501 26.8953C23.8337 26.8953 27.1422 23.5852 27.1422 19.5016C27.1422 15.4179 23.8337 12.1062 19.7501 12.1062ZM19.7501 14.7013C26.0957 14.7013 26.1039 24.3018 19.7501 24.3018C13.4061 24.3018 13.3964 14.7013 19.7501 14.7013Z" fill="white"/>
</g>
<defs>
<linearGradient id="paint0_linear" x1="2.76548" y1="36.5089" x2="39.0118" y2="5.13807" gradientUnits="userSpaceOnUse">
<stop stop-color="#FFDD55"/>
<stop offset="0.5" stop-color="#FF543E"/>
<stop offset="1" stop-color="#C837AB"/>
</linearGradient>
<clipPath id="clip0">
<rect width="39" height="39" fill="white" transform="translate(0.253418)"/>
</clipPath>
</defs>
</svg>
