<svg width="40" height="39" viewBox="0 0 40 39" fill="none" xmlns="http://www.w3.org/2000/svg">
<g clip-path="url(#clip0)">
<path d="M19.7534 0C30.5235 0 39.2534 8.73112 39.2534 19.5001C39.2534 30.269 30.5235 39 19.7534 39C8.9832 39 0.253418 30.2689 0.253418 19.5001C0.253418 8.73125 8.98333 0 19.7534 0Z" fill="#0E76A8"/>
<path d="M11.2415 26.7929H14.8929V14.6225H11.2415V26.7929ZM25.4668 14.2009C23.6947 14.2009 22.1091 14.8481 20.9843 16.2765V14.5824H17.3195V26.7931H20.9843V20.1899C20.9843 18.7944 22.2628 17.433 23.8642 17.433C25.4656 17.433 25.8605 18.7944 25.8605 20.1557V26.7919H29.5119V19.884C29.5118 15.0857 27.2401 14.2009 25.4668 14.2009ZM13.0501 13.4062C14.0592 13.4062 14.8783 12.5872 14.8783 11.578C14.8783 10.5689 14.0592 9.75 13.0501 9.75C12.041 9.75 11.2219 10.569 11.2219 11.5782C11.2219 12.5873 12.041 13.4062 13.0501 13.4062Z" fill="white"/>
</g>
<defs>
<clipPath id="clip0">
<rect width="39" height="39" fill="white" transform="translate(0.253418)"/>
</clipPath>
</defs>
</svg>
