<svg width="46" height="46" viewBox="0 0 46 46" fill="none" xmlns="http://www.w3.org/2000/svg">
<g clip-path="url(#clip0)">
<path d="M22 30.9863H23.0547C28.1433 30.9863 32.2832 26.8464 32.2832 21.7578V9.45312C32.2832 4.31601 28.1433 0.136719 23.0547 0.136719H22C16.917 0.136719 12.7806 4.30695 12.7715 9.43625V21.7578C12.7715 26.8464 16.9114 30.9863 22 30.9863ZM22 2.77344H23.0547C26.4251 2.77344 29.2112 5.35057 29.5987 8.66211H27.4492C26.7211 8.66211 26.1309 9.25238 26.1309 9.98047C26.1309 10.7086 26.7211 11.2988 27.4492 11.2988H29.6465V14.2871H26.043C25.3149 14.2871 24.7246 14.8774 24.7246 15.6055C24.7246 16.3336 25.3149 16.9238 26.043 16.9238H29.6465V19.9121H27.4492C26.7211 19.9121 26.1309 20.5024 26.1309 21.2305C26.1309 21.9586 26.7211 22.5488 27.4492 22.5488H29.5974C29.2051 25.8118 26.4216 28.3496 23.0547 28.3496H22C18.6332 28.3496 15.8496 25.8118 15.4573 22.5488H17.6055C18.3336 22.5488 18.9238 21.9586 18.9238 21.2305C18.9238 20.5024 18.3336 19.9121 17.6055 19.9121H15.4082V16.9238H19.0117C19.7398 16.9238 20.3301 16.3336 20.3301 15.6055C20.3301 14.8774 19.7398 14.2871 19.0117 14.2871H15.4082V11.2988H17.6055C18.3336 11.2988 18.9238 10.7086 18.9238 9.98047C18.9238 9.25238 18.3336 8.66211 17.6055 8.66211H15.456C15.8435 5.35057 18.6296 2.77344 22 2.77344Z" fill="#05AAD1"/>
<path d="M37.9082 21.2305C37.9082 20.5024 37.3179 19.9121 36.5898 19.9121C35.8618 19.9121 35.2715 20.5024 35.2715 21.2305C35.2715 28.2576 29.5545 33.9746 22.5273 33.9746C15.5002 33.9746 9.7832 28.2576 9.7832 21.2305C9.7832 20.5024 9.19293 19.9121 8.46484 19.9121C7.73676 19.9121 7.14648 20.5024 7.14648 21.2305C7.14648 29.2674 13.3429 35.8832 21.209 36.5542V42.5H14.0898C13.3618 42.5 12.7715 43.0903 12.7715 43.8184C12.7715 44.5464 13.3618 45.1367 14.0898 45.1367H30.9648C31.6929 45.1367 32.2832 44.5464 32.2832 43.8184C32.2832 43.0903 31.6929 42.5 30.9648 42.5H23.8457V36.5542C31.7118 35.8832 37.9082 29.2674 37.9082 21.2305Z" fill="#083844"/>
</g>
<defs>
<clipPath id="clip0">
<rect width="45" height="45" fill="white" transform="translate(0.0273438 0.136719)"/>
</clipPath>
</defs>
</svg>
