<svg width="46" height="46" viewBox="0 0 46 46" fill="none" xmlns="http://www.w3.org/2000/svg">
<g clip-path="url(#clip0)">
<path d="M12.7377 33.8867C12.3777 33.8867 12.0177 33.7498 11.744 33.4742C11.1946 32.9248 11.1946 32.0342 11.744 31.4848L16.8421 26.3867L11.7421 21.2867C11.1927 20.7373 11.1927 19.8467 11.7421 19.2973C12.2915 18.7479 13.1821 18.7479 13.7315 19.2973L19.8252 25.391C20.3746 25.9404 20.3746 26.831 19.8252 27.3804L13.7315 33.4742C13.4577 33.7498 13.0977 33.8867 12.7377 33.8867Z" fill="#05AAD1"/>
<path d="M32.4253 33.8867H23.9878C23.2115 33.8867 22.5815 33.2567 22.5815 32.4805C22.5815 31.7042 23.2115 31.0742 23.9878 31.0742H32.4253C33.2015 31.0742 33.8315 31.7042 33.8315 32.4805C33.8315 33.2567 33.2015 33.8867 32.4253 33.8867Z" fill="#05AAD1"/>
<path d="M39.9253 43.2617H5.23779C2.39342 43.2617 0.081543 40.9498 0.081543 38.1055V7.16797C0.081543 4.32359 2.39342 2.01172 5.23779 2.01172H39.9253C42.7697 2.01172 45.0815 4.32359 45.0815 7.16797V38.1055C45.0815 40.9498 42.7697 43.2617 39.9253 43.2617ZM5.23779 4.82422C3.94592 4.82422 2.89404 5.87609 2.89404 7.16797V38.1055C2.89404 39.3973 3.94592 40.4492 5.23779 40.4492H39.9253C41.2172 40.4492 42.269 39.3973 42.269 38.1055V7.16797C42.269 5.87609 41.2172 4.82422 39.9253 4.82422H5.23779Z" fill="#083844"/>
<path d="M43.6753 11.3867H1.48779C0.711543 11.3867 0.081543 10.7567 0.081543 9.98047C0.081543 9.20422 0.711543 8.57422 1.48779 8.57422H43.6753C44.4515 8.57422 45.0815 9.20422 45.0815 9.98047C45.0815 10.7567 44.4515 11.3867 43.6753 11.3867Z" fill="#083844"/>
</g>
<defs>
<clipPath id="clip0">
<rect width="45" height="45" fill="white" transform="translate(0.081543 0.136719)"/>
</clipPath>
</defs>
</svg>
