<svg width="46" height="46" viewBox="0 0 46 46" fill="none" xmlns="http://www.w3.org/2000/svg">
<path fill-rule="evenodd" clip-rule="evenodd" d="M15.6829 23.3931C15.6829 27.3931 18.9573 30.6476 23 30.6476C27.0244 30.6476 30.2988 27.3931 30.2988 23.3931C30.2988 19.3749 27.0244 16.1203 23 16.1203C18.9573 16.1203 15.6829 19.3749 15.6829 23.3931ZM33.7561 12.2294C36.9573 14.7022 39.6829 18.3203 41.6402 22.8476C41.7866 23.1931 41.7866 23.5931 41.6402 23.9203C37.7256 32.9749 30.7561 38.3931 23 38.3931H22.9817C15.2439 38.3931 8.27439 32.9749 4.35976 23.9203C4.21341 23.5931 4.21341 23.1931 4.35976 22.8476C8.27439 13.7931 15.2439 8.39307 22.9817 8.39307H23C26.878 8.39307 30.5549 9.73852 33.7561 12.2294ZM23.0022 27.9163C25.5083 27.9163 27.5571 25.88 27.5571 23.3891C27.5571 20.88 25.5083 18.8436 23.0022 18.8436C22.7827 18.8436 22.5632 18.8618 22.3619 18.8982C22.2888 20.8982 20.6424 22.4982 18.612 22.4982H18.5205C18.4656 22.7891 18.429 23.08 18.429 23.3891C18.429 25.88 20.4778 27.9163 23.0022 27.9163Z" fill="white"/>
</svg>
