<svg width="46" height="46" viewBox="0 0 46 46" fill="none" xmlns="http://www.w3.org/2000/svg">
<g clip-path="url(#clip0)">
<path d="M33.2627 0.839844H4.43457C4.24809 0.839844 4.06925 0.913923 3.93739 1.04578C3.80552 1.17765 3.73145 1.35649 3.73145 1.54297V43.7305C3.73145 43.917 3.80552 44.0958 3.93739 44.2277C4.06925 44.3595 4.24809 44.4336 4.43457 44.4336H33.2627C34.0084 44.4329 34.7234 44.1364 35.2507 43.6091C35.778 43.0818 36.0745 42.3668 36.0752 41.6211V3.65234C36.0745 2.90664 35.778 2.19167 35.2507 1.66438C34.7234 1.13708 34.0084 0.840542 33.2627 0.839844ZM7.9502 43.0273H5.1377V2.24609H7.9502V43.0273ZM34.6689 41.6211C34.6685 41.9939 34.5201 42.3513 34.2565 42.6149C33.9929 42.8785 33.6355 43.0269 33.2627 43.0273H9.35645V2.24609H33.2627C33.6355 2.24658 33.9929 2.3949 34.2565 2.65851C34.5201 2.92213 34.6685 3.27953 34.6689 3.65234V41.6211Z" fill="#083844"/>
<path d="M31.1533 9.98047H12.8721C12.6856 9.98047 12.5067 10.0545 12.3749 10.1864C12.243 10.3183 12.1689 10.4971 12.1689 10.6836V19.1211C12.1689 19.3076 12.243 19.4864 12.3749 19.6183C12.5067 19.7501 12.6856 19.8242 12.8721 19.8242H31.1533C31.3398 19.8242 31.5186 19.7501 31.6505 19.6183C31.7824 19.4864 31.8564 19.3076 31.8564 19.1211V10.6836C31.8564 10.4971 31.7824 10.3183 31.6505 10.1864C31.5186 10.0545 31.3398 9.98047 31.1533 9.98047ZM30.4502 18.418H13.5752V11.3867H30.4502V18.418Z" fill="#05AAD1"/>
<path d="M40.2939 0.839844C39.5482 0.840542 38.8333 1.13708 38.306 1.66438C37.7787 2.19167 37.4821 2.90664 37.4814 3.65234V38.8086C37.4814 38.9038 37.5008 38.998 37.5386 39.0854L39.6479 44.0073C39.7021 44.1338 39.7921 44.2417 39.907 44.3175C40.0218 44.3932 40.1564 44.4336 40.2939 44.4336C40.4315 44.4336 40.5661 44.3932 40.6809 44.3175C40.7958 44.2417 40.8858 44.1338 40.9399 44.0073L43.0493 39.0854C43.0871 38.998 43.1065 38.9038 43.1064 38.8086V3.65234C43.1057 2.90664 42.8092 2.19167 42.2819 1.66438C41.7546 1.13708 41.0397 0.840542 40.2939 0.839844ZM40.2939 41.9454L39.2507 39.5117H41.3372L40.2939 41.9454ZM41.7002 38.1055H38.8877V10.6836H41.7002V38.1055ZM41.7002 9.27734H38.8877V6.46484H41.7002V9.27734ZM41.7002 5.05859H38.8877V3.65234C38.8877 3.27938 39.0359 2.9217 39.2996 2.65797C39.5633 2.39425 39.921 2.24609 40.2939 2.24609C40.6669 2.24609 41.0246 2.39425 41.2883 2.65797C41.552 2.9217 41.7002 3.27938 41.7002 3.65234V5.05859Z" fill="#05AAD1"/>
</g>
<defs>
<clipPath id="clip0">
<rect width="45" height="45" fill="white" transform="translate(0.918945 0.136719)"/>
</clipPath>
</defs>
</svg>
